HIERARCHY
ROOT Hips
{
	OFFSET 0.000000 0.000000 0.000000
	CHANNELS 6 Xposition Yposition Zposition Xrotation Yrotation Zrotation
	JOINT LeftUpLeg_virtual
	{
		OFFSET 0.000000 0.000000 0.000000
		CHANNELS 3 Xrotation Yrotation Zrotation
		JOINT LeftUpLeg
		{
			OFFSET 10.205400 -3.823500 0.155100
			CHANNELS 3 Xrotation Yrotation Zrotation
			JOINT LeftLeg
			{
				OFFSET 0.708757 -12.982077 0.567790
				CHANNELS 3 Xrotation Yrotation Zrotation
				JOINT LeftFoot
				{
					OFFSET -0.708756 -10.717838 -2.184338
					CHANNELS 3 Xrotation Yrotation Zrotation
					JOINT LeftToeBase
					{
						OFFSET 0.108149 -7.191104 7.560241
						CHANNELS 3 Xrotation Yrotation Zrotation
						JOINT LeftToe_End
						{
							OFFSET 0.070230 0.081724 4.490308
							CHANNELS 3 Xrotation Yrotation Zrotation
							End Site
							{
								OFFSET 0 0 0
							}
						}
					}
				}
			}
		}
	}
	JOINT RightUpLeg_virtual
	{
		OFFSET 0.000000 0.000000 0.000000
		CHANNELS 3 Xrotation Yrotation Zrotation
		JOINT RightUpLeg
		{
			OFFSET -10.205400 -3.823500 0.005500
			CHANNELS 3 Xrotation Yrotation Zrotation
			JOINT RightLeg
			{
				OFFSET -0.708756 -12.982134 0.610632
				CHANNELS 3 Xrotation Yrotation Zrotation
				JOINT RightFoot
				{
					OFFSET 0.708754 -10.717769 -1.945823
					CHANNELS 3 Xrotation Yrotation Zrotation
					JOINT RightToeBase
					{
						OFFSET -0.108140 -7.191069 7.372968
						CHANNELS 3 Xrotation Yrotation Zrotation
						JOINT RightToe_End
						{
							OFFSET -0.070227 0.081735 4.479403
							CHANNELS 3 Xrotation Yrotation Zrotation
							End Site
							{
								OFFSET 0 0 0
							}
						}
					}
				}
			}
		}
	}
	JOINT Spine_virtual
	{
		OFFSET 0.000000 0.000000 0.000000
		CHANNELS 3 Xrotation Yrotation Zrotation
		JOINT Spine
		{
			OFFSET 0.000000 6.876099 0.125700
			CHANNELS 3 Xrotation Yrotation Zrotation
			JOINT Spine1
			{
				OFFSET 0.000000 5.730043 0.104720
				CHANNELS 3 Xrotation Yrotation Zrotation
				JOINT Spine1_split
				{
					OFFSET 0.000000 5.730043 0.104720
					CHANNELS 3 Xrotation Yrotation Zrotation
					JOINT Spine2
					{
						OFFSET 0.000000 5.730043 0.104720
						CHANNELS 3 Xrotation Yrotation Zrotation
						JOINT Neck_virtual
						{
							OFFSET 0.000000 0.000000 0.000000
							CHANNELS 3 Xrotation Yrotation Zrotation
							JOINT Neck
							{
								OFFSET 0.000000 10.314075 0.188496
								CHANNELS 3 Xrotation Yrotation Zrotation
								JOINT Head
								{
									OFFSET 0.000000 7.643700 -2.377400
									CHANNELS 3 Xrotation Yrotation Zrotation
									JOINT HeadTop_End
									{
										OFFSET 0.000000 43.788605 -13.619600
										CHANNELS 3 Xrotation Yrotation Zrotation
										End Site
										{
											OFFSET 0 0 0
										}
									}
								}
							}
						}
						JOINT LeftShoulder_virtual
						{
							OFFSET 0.000000 0.000000 0.000000
							CHANNELS 3 Xrotation Yrotation Zrotation
							JOINT LeftShoulder
							{
								OFFSET 2.196100 4.412489 0.087492
								CHANNELS 3 Xrotation Yrotation Zrotation
								JOINT LeftShoulder_split
								{
									OFFSET 2.196100 4.412489 0.087492
									CHANNELS 3 Xrotation Yrotation Zrotation
									JOINT LeftArm
									{
										OFFSET 8.771219 -2.981674 -0.026999
										CHANNELS 3 Xrotation Yrotation Zrotation
										JOINT LeftForeArm
										{
											OFFSET 8.512804 0.000000 -0.000000
											CHANNELS 3 Xrotation Yrotation Zrotation
											JOINT LeftHand
											{
												OFFSET 18.484802 0.000000 -0.000000
												CHANNELS 3 Xrotation Yrotation Zrotation
												End Site
												{
													OFFSET 0 0 0
												}
											}
										}
									}
								}
							}
						}
						JOINT RightShoulder_virtual
						{
							OFFSET 0.000000 0.000000 0.000000
							CHANNELS 3 Xrotation Yrotation Zrotation
							JOINT RightShoulder
							{
								OFFSET -2.196100 4.412496 0.070690
								CHANNELS 3 Xrotation Yrotation Zrotation
								JOINT RightShoulder_split
								{
									OFFSET -2.196100 4.412496 0.070690
									CHANNELS 3 Xrotation Yrotation Zrotation
									JOINT RightArm
									{
										OFFSET -8.771282 -2.981682 -0.094208
										CHANNELS 3 Xrotation Yrotation Zrotation
										JOINT RightForeArm
										{
											OFFSET -8.494598 0.000000 0.000000
											CHANNELS 3 Xrotation Yrotation Zrotation
											JOINT RightHand
											{
												OFFSET -18.483803 0.000000 0.000001
												CHANNELS 3 Xrotation Yrotation Zrotation
												End Site
												{
													OFFSET 0 0 0
												}
											}
										}
									}
								}
							}
						}
					}
				}
			}
		}
	}
}
MOTION
Frames: 11
Frame Time: 0.03333333
-2.678549 31.911434 0.282904 0.000000 0.000000 0.000000 3.168849 29.671547 0.865736 -32.063879 -19.223170 1.497158 35.420094 13.501376 -9.522997 -2.198014 0.266297 -7.832298 2.692395 -2.010854 0.115851 0.000000 0.000000 0.000000 4.101139 28.146520 0.602762 10.843019 -23.197694 -8.928937 25.307473 -6.657934 9.702521 -37.015005 -12.131330 -1.251099 -0.638765 -0.273804 -0.625979 0.000000 0.000000 0.000000 4.251988 29.139052 -0.167165 3.793580 4.440923 -0.999332 0.442248 3.217299 0.498999 0.435689 0.693764 0.090518 0.000000 0.000000 0.000000 1.571778 2.823566 0.866966 -3.141230 11.954472 -6.920978 -6.269415 9.408159 9.895175 0.000000 0.000000 0.000000 0.375996 3.079596 0.905358 -0.034035 -2.063303 -3.187107 2.907515 -1.105586 -0.122127 -74.296564 -0.220355 -25.546207 1.313870 -65.503386 3.300250 0.000000 0.000000 0.000000 1.092382 3.037362 0.907726 4.250782 12.188747 8.152615 -5.310698 -0.385619 0.336487 14.645964 -6.147716 67.278859 16.973261 40.795712 -6.979935 0.000000 0.000000 0.000000 
-2.667623 31.953617 0.184965 0.000000 0.000000 0.000000 3.720332 26.832748 0.625281 -31.265423 -18.564644 3.189388 35.035838 14.391132 -9.537533 -2.376819 0.637089 -8.259938 2.909247 -2.057661 -0.013136 0.000000 0.000000 0.000000 4.758389 25.395898 0.382129 9.444925 -21.720165 -8.851633 25.195817 -6.261202 9.481884 -35.971034 -11.991045 -1.125833 -0.764567 -0.275936 -0.773615 0.000000 0.000000 0.000000 4.805909 26.468344 -0.405992 3.792053 4.228348 -1.164505 0.576335 3.087347 0.491372 0.405548 0.808999 0.016804 0.000000 0.000000 0.000000 1.659761 2.684499 0.837803 -3.922976 8.639141 -6.344071 -4.631122 6.224994 10.306399 0.000000 0.000000 0.000000 0.430533 2.934807 0.874349 -0.025216 -2.643124 -3.301342 2.825200 -0.933737 0.008076 -74.701683 0.233106 -26.695740 1.896080 -67.750948 3.503856 0.000000 0.000000 0.000000 1.208984 2.890656 0.876670 4.227121 12.011444 7.946916 -5.312042 -0.257974 0.268290 14.085992 -5.938406 67.319683 17.389332 42.078149 -7.339663 0.000000 0.000000 0.000000 
-2.647623 31.996115 0.070322 0.000000 0.000000 0.000000 4.312542 23.837010 0.385494 -30.546515 -18.072170 4.947528 34.679053 15.495927 -9.521246 -2.536301 1.146697 -8.803527 3.166226 -2.075252 -0.210268 0.000000 0.000000 0.000000 5.440721 22.416650 0.174166 7.908019 -20.159874 -8.735087 25.050190 -5.759965 9.269039 -34.891663 -11.787404 -0.963106 -0.913289 -0.288160 -0.859801 0.000000 0.000000 0.000000 5.395184 23.540908 -0.624013 3.762945 4.009076 -1.327149 0.735770 2.944877 0.480530 0.397822 1.010072 -0.027955 0.000000 0.000000 0.000000 1.763599 2.537870 0.811832 -5.001801 5.291653 -5.880687 -3.002050 3.124930 10.534274 0.000000 0.000000 0.000000 0.495948 2.802954 0.846648 -0.002687 -3.298494 -3.310750 2.742603 -0.903454 0.094643 -74.970581 0.587565 -28.096671 2.742169 -70.142382 3.958990 0.000000 0.000000 0.000000 1.354511 2.746635 0.836606 4.177313 11.746192 7.708617 -5.239079 -0.122109 0.219638 13.549566 -5.603103 67.328501 17.866523 43.459278 -7.751898 0.000000 0.000000 0.000000 
-2.616554 32.041294 -0.056379 0.000000 0.000000 0.000000 4.916022 20.646371 0.154700 -29.870128 -17.710209 6.782154 34.362268 16.793331 -9.459192 -2.655548 1.778922 -9.508876 3.403292 -2.070101 -0.459410 0.000000 0.000000 0.000000 6.097554 19.201419 -0.010072 6.289263 -18.525747 -8.541114 24.853375 -5.137986 9.055687 -33.808989 -11.489903 -0.805483 -1.051943 -0.316166 -0.857672 0.000000 0.000000 0.000000 5.985567 20.317755 -0.802807 3.712827 3.778093 -1.472613 0.908332 2.783299 0.473035 0.391855 1.305511 -0.013394 0.000000 0.000000 0.000000 1.871849 2.380553 0.795835 -6.371410 1.862897 -5.455864 -1.330950 0.008525 10.612527 0.000000 0.000000 0.000000 0.572316 2.680044 0.825322 0.038443 -3.998813 -3.220600 2.659062 -1.041099 0.143689 -75.067317 0.733137 -29.761655 3.887769 -72.308166 4.707948 0.000000 0.000000 0.000000 1.529175 2.605761 0.791693 4.106580 11.436535 7.456108 -5.075915 0.051963 0.148021 13.085459 -5.116831 67.232680 18.378511 44.851424 -8.170006 0.000000 0.000000 0.000000 
-2.573317 32.088936 -0.190659 0.000000 0.000000 0.000000 5.494594 17.182208 -0.050334 -29.204157 -17.402120 8.716280 34.128618 18.154916 -9.351592 -2.740710 2.472076 -10.395517 3.569236 -2.044109 -0.711966 0.000000 0.000000 0.000000 6.692182 15.704526 -0.160935 4.629991 -16.820714 -8.271217 24.595861 -4.367138 8.845726 -32.719973 -11.073978 -0.664508 -1.144466 -0.359583 -0.771199 0.000000 0.000000 0.000000 6.522739 16.779743 -0.938927 3.658501 3.530204 -1.589083 1.083337 2.603428 0.478970 0.400876 1.580719 0.030033 0.000000 0.000000 0.000000 1.963634 2.211688 0.796557 -7.968739 -1.689626 -4.973436 0.395311 -3.223960 10.595024 0.000000 0.000000 0.000000 0.665421 2.549566 0.809604 0.099690 -4.720474 -3.037847 2.515373 -1.281962 0.155614 -75.025079 0.612303 -31.579400 5.173538 -73.780769 5.605764 0.000000 0.000000 0.000000 1.724271 2.464967 0.756466 4.018769 11.143139 7.222130 -4.829270 0.270974 0.005361 12.699976 -4.492971 66.963523 18.853559 46.070657 -8.513243 0.000000 0.000000 0.000000 
-2.518364 32.138069 -0.330132 0.000000 0.000000 0.000000 6.012100 13.382104 -0.217570 -28.473242 -17.012809 10.749969 33.983227 19.496176 -9.209068 -2.897509 3.181514 -11.379470 3.726996 -2.006002 -0.944153 0.000000 0.000000 0.000000 7.205073 11.893344 -0.274120 2.955062 -15.051806 -7.948745 24.302552 -3.412070 8.637838 -31.562236 -10.532387 -0.489253 -1.210010 -0.415289 -0.646125 0.000000 0.000000 0.000000 6.991345 12.881332 -1.032502 3.622292 3.255085 -1.667363 1.245428 2.402865 0.504087 0.447809 1.837924 0.045582 0.000000 0.000000 0.000000 2.024439 2.029078 0.823650 -9.692357 -5.393181 -4.365854 2.176742 -6.628014 10.525319 0.000000 0.000000 0.000000 0.761975 2.400734 0.799690 0.175821 -5.450692 -2.812341 2.315468 -1.548306 0.220433 -74.902143 0.268701 -33.365737 6.271189 -74.270555 6.342059 0.000000 0.000000 0.000000 1.921700 2.321767 0.743562 3.924629 10.908770 7.029777 -4.566448 0.529291 -0.180742 12.363679 -3.808008 66.441184 19.191682 46.937944 -8.690868 0.000000 0.000000 0.000000 
-2.444967 32.183529 -0.463711 0.000000 0.000000 0.000000 6.443238 9.213836 -0.329125 -27.635656 -16.347291 12.863672 33.894025 20.728828 -9.036199 -3.241935 3.858011 -12.367764 3.887604 -1.962552 -1.133605 0.000000 0.000000 0.000000 7.621698 7.792501 -0.339752 1.257367 -13.222237 -7.620422 24.001526 -2.225597 8.423146 -30.282436 -9.864535 -0.170719 -1.326279 -0.476159 -0.553154 0.000000 0.000000 0.000000 7.364107 8.617673 -1.077807 3.625838 2.945609 -1.694307 1.371941 2.185762 0.548763 0.507763 2.021642 0.020583 0.000000 0.000000 0.000000 2.041671 1.835343 0.873228 -11.395780 -9.238510 -3.608602 3.976785 -10.190825 10.442937 0.000000 0.000000 0.000000 0.854398 2.229446 0.795755 0.258799 -6.150345 -2.593615 2.016764 -1.742327 0.339804 -74.730807 -0.226444 -34.923099 6.877425 -73.873072 6.623574 0.000000 0.000000 0.000000 2.096834 2.176177 0.755692 3.829665 10.754572 6.881641 -4.329945 0.801056 -0.401748 12.000726 -3.165794 65.668102 19.311392 47.373796 -8.657440 0.000000 0.000000 0.000000 
-2.356144 32.221752 -0.582706 0.000000 0.000000 0.000000 6.785054 4.689702 -0.374507 -26.719179 -15.263369 15.032705 33.866045 21.788930 -8.863221 -3.805832 4.444837 -13.330548 4.011368 -1.922078 -1.268248 0.000000 0.000000 0.000000 7.951825 3.382844 -0.346398 -0.458885 -11.340302 -7.310664 23.733383 -0.793705 8.183171 -28.903315 -9.070026 0.325691 -1.489425 -0.534578 -0.552085 0.000000 0.000000 0.000000 7.623502 3.983924 -1.066398 3.682163 2.598537 -1.665128 1.451340 1.958221 0.604146 0.553239 2.142114 -0.030904 0.000000 0.000000 0.000000 2.023366 1.633893 0.936860 -12.957376 -13.170818 -2.721312 5.723158 -13.875798 10.348391 0.000000 0.000000 0.000000 0.924916 2.039386 0.794733 0.337042 -6.774982 -2.423311 1.662245 -1.895386 0.531019 -74.561378 -0.764782 -36.130400 7.045067 -73.002189 6.508246 0.000000 0.000000 0.000000 2.232368 2.024227 0.785980 3.748943 10.657600 6.755096 -4.137714 1.072552 -0.630440 11.549794 -2.674998 64.701282 19.206803 47.418073 -8.430523 0.000000 0.000000 0.000000 
-2.250302 32.243134 -0.676455 0.000000 0.000000 0.000000 7.055281 -0.130138 -0.340455 -25.812070 -13.619404 17.208942 33.964051 22.632861 -8.757414 -4.508761 4.876175 -14.224769 4.025423 -1.890244 -1.347530 0.000000 0.000000 0.000000 8.231988 -1.306483 -0.276503 -2.226540 -9.445712 -7.034131 23.567013 0.846747 7.902599 -27.534683 -8.150075 0.913891 -1.584996 -0.575707 -0.666720 0.000000 0.000000 0.000000 7.792739 -0.939601 -0.985884 3.788142 2.212087 -1.570998 1.475676 1.718633 0.658134 0.600689 2.299809 -0.063328 0.000000 0.000000 0.000000 1.973082 1.419533 1.000420 -14.273474 -17.097002 -1.773049 7.349311 -17.554923 10.237061 0.000000 0.000000 0.000000 0.962592 1.832957 0.794204 0.399528 -7.297323 -2.371796 1.216613 -2.041833 0.760526 -74.326282 -1.266287 -36.970134 7.013139 -72.179049 6.220331 0.000000 0.000000 0.000000 2.315729 1.858240 0.818525 3.696707 10.564932 6.604515 -3.973315 1.353447 -0.860131 10.936617 -2.378864 63.667554 18.923869 47.213881 -8.084432 0.000000 0.000000 0.000000 
-2.128421 32.244919 -0.744350 0.000000 0.000000 0.000000 7.279768 -5.180371 -0.200674 -25.049357 -11.384493 19.356165 34.291822 23.220406 -8.761758 -5.217345 5.112025 -15.031763 3.883979 -1.868130 -1.367091 0.000000 0.000000 0.000000 8.493302 -6.225621 -0.104420 -4.065699 -7.564496 -6.790685 23.545817 2.644868 7.565384 -26.293032 -7.109457 1.487630 -1.494070 -0.587233 -0.876021 0.000000 0.000000 0.000000 7.895470 -6.068548 -0.814074 3.924018 1.789468 -1.412992 1.455505 1.464508 0.698692 0.599785 2.435870 -0.028659 0.000000 0.000000 0.000000 1.908048 1.190110 1.047453 -15.275173 -20.887518 -0.834039 8.751078 -21.106698 10.082799 0.000000 0.000000 0.000000 0.975840 1.610868 0.783425 0.443157 -7.716400 -2.454945 0.735576 -2.211564 0.963317 -73.957090 -1.668446 -37.505330 6.941788 -71.747039 5.916106 0.000000 0.000000 0.000000 2.350382 1.670083 0.837291 3.680704 10.418724 6.390214 -3.773744 1.646502 -1.072373 10.097496 -2.234008 62.733457 18.546696 46.882074 -7.710626 0.000000 0.000000 0.000000 
-1.988641 32.226849 -0.793417 0.000000 0.000000 0.000000 7.503586 -10.358989 0.059809 -24.521907 -8.569998 21.413463 34.848380 23.566021 -8.891158 -5.921884 5.172899 -15.692824 3.717491 -1.862122 -1.349777 0.000000 0.000000 0.000000 8.769701 -11.287617 0.198701 -6.022961 -5.725709 -6.585201 23.741961 4.561741 7.165446 -25.210445 -5.964537 1.966412 -1.168589 -0.563907 -1.129411 0.000000 0.000000 0.000000 8.000942 -11.285535 -0.536102 4.068944 1.341145 -1.199677 1.414230 1.190307 0.715985 0.646480 2.579155 0.030072 0.000000 0.000000 0.000000 1.843760 0.937802 1.071663 -15.959893 -24.402692 0.022346 9.858590 -24.387161 9.875998 0.000000 0.000000 0.000000 0.977711 1.366000 0.754789 0.471845 -8.078054 -2.656108 0.248909 -2.417500 1.093387 -73.456287 -1.959266 -37.848383 6.918132 -71.688894 5.676284 0.000000 0.000000 0.000000 2.352238 1.448562 0.833690 3.706595 10.173285 6.102380 -3.561352 1.947569 -1.236995 9.022123 -2.145792 62.023008 18.149146 46.476797 -7.362743 0.000000 0.000000 0.000000 
